<svg xmlns="http://www.w3.org/2000/svg" xmlns:xlink="http://www.w3.org/1999/xlink" width="860" zoomAndPan="magnify" viewBox="0 0 645 329.999987" height="440" preserveAspectRatio="xMidYMid meet" version="1.0"><defs><g/><clipPath id="e4242ef02b"><path d="M 170 120 L 270 120 L 270 232 L 170 232 Z M 170 120 " clip-rule="nonzero"/></clipPath><clipPath id="7194f509c3"><path d="M 220.949219 91.867188 L 314.023438 152.351562 L 261.304688 233.476562 L 168.230469 172.992188 Z M 220.949219 91.867188 " clip-rule="nonzero"/></clipPath><clipPath id="abe9c7a6de"><path d="M 220.949219 91.867188 L 314.023438 152.351562 L 261.304688 233.476562 L 168.230469 172.992188 Z M 220.949219 91.867188 " clip-rule="nonzero"/></clipPath></defs><rect x="-64.5" width="774" fill="#ffffff" y="-32.999999" height="395.999984" fill-opacity="1"/><rect x="-64.5" width="774" fill="#212529" y="-32.999999" height="395.999984" fill-opacity="1"/><g fill="#ffffff" fill-opacity="1"><g transform="translate(285.049648, 181.922684)"><g><path d="M 21.71875 -36.015625 L 21.71875 -11.109375 C 21.71875 -7.515625 20.722656 -4.722656 18.734375 -2.734375 C 16.742188 -0.742188 14 0.25 10.5 0.25 C 6.238281 0.25 2.703125 -1.476562 -0.109375 -4.9375 L 2.78125 -9.5625 C 5.21875 -6.925781 7.769531 -5.609375 10.4375 -5.609375 C 12.09375 -5.609375 13.363281 -6.097656 14.25 -7.078125 C 15.144531 -8.054688 15.59375 -9.46875 15.59375 -11.3125 L 15.59375 -30.5625 L 3.140625 -30.5625 L 3.140625 -36.015625 Z M 21.71875 -36.015625 "/></g></g></g><g fill="#ffffff" fill-opacity="1"><g transform="translate(310.719141, 181.922684)"><g><path d="M 10.8125 -5.5 L 26.390625 -5.5 L 26.390625 0 L 4.734375 0 L 4.734375 -36.015625 L 10.8125 -36.015625 Z M 10.8125 -5.5 "/></g></g></g><g fill="#ffffff" fill-opacity="1"><g transform="translate(338.189095, 181.922684)"><g><path d="M 27.984375 -8.125 L 9.828125 -8.125 L 6.375 0 L 0.046875 0 L 15.953125 -36.015625 L 22.171875 -36.015625 L 37.921875 0 L 31.4375 0 Z M 25.671875 -13.53125 L 18.890625 -29.53125 L 12.09375 -13.53125 Z M 25.671875 -13.53125 "/></g></g></g><g fill="#ffffff" fill-opacity="1"><g transform="translate(376.153195, 181.922684)"><g><path d="M 15.796875 -13.640625 L 3.140625 -13.640625 L 3.140625 -17.703125 L 15.796875 -17.703125 Z M 15.796875 -13.640625 "/></g></g></g><g fill="#ffffff" fill-opacity="1"><g transform="translate(395.08381, 181.922684)"><g><path d="M 28.765625 0 L 16.921875 -15.90625 L 10.8125 -9.15625 L 10.8125 0 L 4.734375 0 L 4.734375 -36.015625 L 10.8125 -36.015625 L 10.8125 -17.390625 L 27.984375 -36.015625 L 35.140625 -36.015625 L 21.203125 -20.625 L 36.0625 0 Z M 28.765625 0 "/></g></g></g><g fill="#ffffff" fill-opacity="1"><g transform="translate(432.019077, 181.922684)"><g><path d="M 19.5 -11.984375 L 19.5 0 L 13.484375 0 L 13.484375 -11.78125 L 0.046875 -36.015625 L 6.171875 -36.015625 L 16.46875 -18.46875 L 26.546875 -36.015625 L 32.71875 -36.015625 Z M 19.5 -11.984375 "/></g></g></g><g fill="#ffffff" fill-opacity="1"><g transform="translate(464.787553, 181.922684)"><g><path d="M 20.6875 -36.171875 C 23.21875 -36.171875 25.691406 -35.679688 28.109375 -34.703125 C 30.535156 -33.722656 32.625 -32.359375 34.375 -30.609375 L 30.828125 -26.1875 C 29.515625 -27.59375 27.96875 -28.707031 26.1875 -29.53125 C 24.40625 -30.351562 22.601562 -30.765625 20.78125 -30.765625 C 17.1875 -30.765625 14.144531 -29.535156 11.65625 -27.078125 C 9.164062 -24.628906 7.921875 -21.640625 7.921875 -18.109375 C 7.921875 -14.546875 9.164062 -11.535156 11.65625 -9.078125 C 14.144531 -6.628906 17.1875 -5.40625 20.78125 -5.40625 C 24.519531 -5.40625 27.867188 -6.828125 30.828125 -9.671875 L 34.421875 -5.65625 C 32.566406 -3.84375 30.40625 -2.40625 27.9375 -1.34375 C 25.46875 -0.28125 22.984375 0.25 20.484375 0.25 C 15.191406 0.25 10.742188 -1.503906 7.140625 -5.015625 C 3.546875 -8.535156 1.75 -12.882812 1.75 -18.0625 C 1.75 -23.164062 3.570312 -27.457031 7.21875 -30.9375 C 10.875 -34.425781 15.363281 -36.171875 20.6875 -36.171875 Z M 20.6875 -36.171875 "/></g></g></g><g fill="#ffffff" fill-opacity="1"><g transform="translate(285.049648, 210.271593)"><g><path d="M 5.890625 -10.28125 C 7.523438 -10.289062 8.835938 -9.785156 9.828125 -8.765625 L 9 -7.6875 C 8.164062 -8.476562 7.144531 -8.875 5.9375 -8.875 C 4.875 -8.875 4.003906 -8.523438 3.328125 -7.828125 C 2.648438 -7.128906 2.3125 -6.222656 2.3125 -5.109375 C 2.3125 -3.992188 2.648438 -3.082031 3.328125 -2.375 C 4.003906 -1.675781 4.875 -1.328125 5.9375 -1.328125 C 7.3125 -1.328125 8.367188 -1.765625 9.109375 -2.640625 L 9.984375 -1.703125 C 9.015625 -0.523438 7.648438 0.0625 5.890625 0.0625 C 4.398438 0.0625 3.179688 -0.414062 2.234375 -1.375 C 1.285156 -2.332031 0.8125 -3.578125 0.8125 -5.109375 C 0.8125 -6.617188 1.285156 -7.859375 2.234375 -8.828125 C 3.191406 -9.796875 4.410156 -10.28125 5.890625 -10.28125 Z M 5.890625 -10.28125 "/></g></g></g><g fill="#ffffff" fill-opacity="1"><g transform="translate(295.941564, 210.271593)"><g><path d="M 2.265625 -8.84375 C 3.242188 -9.800781 4.488281 -10.28125 6 -10.28125 C 7.519531 -10.28125 8.765625 -9.800781 9.734375 -8.84375 C 10.703125 -7.882812 11.1875 -6.644531 11.1875 -5.125 C 11.1875 -3.59375 10.703125 -2.34375 9.734375 -1.375 C 8.765625 -0.414062 7.519531 0.0625 6 0.0625 C 4.488281 0.0625 3.242188 -0.414062 2.265625 -1.375 C 1.296875 -2.34375 0.8125 -3.59375 0.8125 -5.125 C 0.8125 -6.644531 1.296875 -7.882812 2.265625 -8.84375 Z M 8.640625 -7.828125 C 7.953125 -8.535156 7.070312 -8.890625 6 -8.890625 C 4.925781 -8.890625 4.046875 -8.535156 3.359375 -7.828125 C 2.671875 -7.128906 2.328125 -6.222656 2.328125 -5.109375 C 2.328125 -3.984375 2.671875 -3.066406 3.359375 -2.359375 C 4.046875 -1.648438 4.925781 -1.296875 6 -1.296875 C 7.070312 -1.296875 7.953125 -1.648438 8.640625 -2.359375 C 9.328125 -3.066406 9.671875 -3.984375 9.671875 -5.109375 C 9.671875 -6.222656 9.328125 -7.128906 8.640625 -7.828125 Z M 8.640625 -7.828125 "/></g></g></g><g fill="#ffffff" fill-opacity="1"><g transform="translate(307.940157, 210.271593)"><g><path d="M 7.328125 -10.296875 C 8.535156 -10.296875 9.484375 -9.941406 10.171875 -9.234375 C 10.859375 -8.523438 11.203125 -7.550781 11.203125 -6.3125 L 11.203125 0 L 9.6875 0 L 9.6875 -5.90625 C 9.6875 -6.8125 9.429688 -7.515625 8.921875 -8.015625 C 8.410156 -8.523438 7.703125 -8.78125 6.796875 -8.78125 C 5.796875 -8.769531 4.992188 -8.460938 4.390625 -7.859375 C 3.796875 -7.265625 3.453125 -6.476562 3.359375 -5.5 L 3.359375 0 L 1.84375 0 L 1.84375 -10.234375 L 3.359375 -10.234375 L 3.359375 -7.984375 C 4.054688 -9.492188 5.378906 -10.265625 7.328125 -10.296875 Z M 7.328125 -10.296875 "/></g></g></g><g fill="#ffffff" fill-opacity="1"><g transform="translate(320.676519, 210.271593)"><g><path d="M 4.5625 -10.296875 C 5.832031 -10.296875 6.921875 -9.984375 7.828125 -9.359375 L 7.25 -8.15625 C 6.363281 -8.71875 5.4375 -9 4.46875 -9 C 3.851562 -9 3.363281 -8.882812 3 -8.65625 C 2.632812 -8.425781 2.453125 -8.082031 2.453125 -7.625 C 2.453125 -7.21875 2.644531 -6.882812 3.03125 -6.625 C 3.425781 -6.375 3.898438 -6.171875 4.453125 -6.015625 C 5.015625 -5.859375 5.570312 -5.679688 6.125 -5.484375 C 6.6875 -5.285156 7.164062 -4.960938 7.5625 -4.515625 C 7.957031 -4.078125 8.15625 -3.523438 8.15625 -2.859375 C 8.15625 -1.898438 7.796875 -1.171875 7.078125 -0.671875 C 6.359375 -0.179688 5.46875 0.0625 4.40625 0.0625 C 2.789062 0.0625 1.484375 -0.414062 0.484375 -1.375 L 1.0625 -2.53125 C 1.488281 -2.125 2.007812 -1.800781 2.625 -1.5625 C 3.238281 -1.332031 3.851562 -1.21875 4.46875 -1.21875 C 5.101562 -1.21875 5.625 -1.34375 6.03125 -1.59375 C 6.4375 -1.84375 6.644531 -2.207031 6.65625 -2.6875 C 6.675781 -3.132812 6.488281 -3.492188 6.09375 -3.765625 C 5.707031 -4.035156 5.234375 -4.25 4.671875 -4.40625 C 4.117188 -4.570312 3.5625 -4.75 3 -4.9375 C 2.445312 -5.125 1.976562 -5.429688 1.59375 -5.859375 C 1.207031 -6.285156 1.015625 -6.835938 1.015625 -7.515625 C 1.015625 -8.429688 1.351562 -9.125 2.03125 -9.59375 C 2.707031 -10.0625 3.550781 -10.296875 4.5625 -10.296875 Z M 4.5625 -10.296875 "/></g></g></g><g fill="#ffffff" fill-opacity="1"><g transform="translate(329.471595, 210.271593)"><g><path d="M 10.71875 -10.234375 L 10.71875 0 L 9.203125 0 L 9.203125 -2.3125 C 8.546875 -0.757812 7.253906 0.03125 5.328125 0.0625 C 4.128906 0.0625 3.191406 -0.289062 2.515625 -1 C 1.835938 -1.71875 1.5 -2.691406 1.5 -3.921875 L 1.5 -10.234375 L 3.015625 -10.234375 L 3.015625 -4.328125 C 3.015625 -3.421875 3.265625 -2.710938 3.765625 -2.203125 C 4.273438 -1.703125 4.96875 -1.453125 5.84375 -1.453125 C 6.894531 -1.460938 7.71875 -1.8125 8.3125 -2.5 C 8.90625 -3.195312 9.203125 -4.097656 9.203125 -5.203125 L 9.203125 -10.234375 Z M 10.71875 -10.234375 "/></g></g></g><g fill="#ffffff" fill-opacity="1"><g transform="translate(342.033225, 210.271593)"><g><path d="M 3.453125 0 L 1.9375 0 L 1.9375 -14.40625 L 3.453125 -14.40625 Z M 3.453125 0 "/></g></g></g><g fill="#ffffff" fill-opacity="1"><g transform="translate(347.430654, 210.271593)"><g><path d="M 6.703125 -1.921875 L 7.125 -0.703125 C 6.382812 -0.191406 5.613281 0.0664062 4.8125 0.078125 C 4.019531 0.078125 3.390625 -0.160156 2.921875 -0.640625 C 2.453125 -1.128906 2.21875 -1.859375 2.21875 -2.828125 L 2.21875 -8.6875 L 0.734375 -8.6875 L 0.734375 -9.90625 L 2.21875 -9.90625 L 2.21875 -12.609375 L 3.703125 -12.609375 L 3.703125 -9.90625 L 6.953125 -9.921875 L 6.953125 -8.6875 L 3.703125 -8.6875 L 3.703125 -3.109375 C 3.703125 -1.960938 4.15625 -1.390625 5.0625 -1.390625 C 5.59375 -1.390625 6.140625 -1.566406 6.703125 -1.921875 Z M 6.703125 -1.921875 "/></g></g></g><g fill="#ffffff" fill-opacity="1"><g transform="translate(355.002583, 210.271593)"><g><path d="M 1.875 -13.90625 C 2.0625 -14.113281 2.296875 -14.21875 2.578125 -14.21875 C 2.867188 -14.21875 3.109375 -14.113281 3.296875 -13.90625 C 3.484375 -13.707031 3.578125 -13.457031 3.578125 -13.15625 C 3.578125 -12.863281 3.484375 -12.617188 3.296875 -12.421875 C 3.109375 -12.222656 2.867188 -12.125 2.578125 -12.125 C 2.296875 -12.125 2.0625 -12.222656 1.875 -12.421875 C 1.6875 -12.617188 1.59375 -12.863281 1.59375 -13.15625 C 1.59375 -13.457031 1.6875 -13.707031 1.875 -13.90625 Z M 3.34375 0 L 1.84375 0 L 1.84375 -10.234375 L 3.34375 -10.234375 Z M 3.34375 0 "/></g></g></g><g fill="#ffffff" fill-opacity="1"><g transform="translate(360.186442, 210.271593)"><g><path d="M 7.328125 -10.296875 C 8.535156 -10.296875 9.484375 -9.941406 10.171875 -9.234375 C 10.859375 -8.523438 11.203125 -7.550781 11.203125 -6.3125 L 11.203125 0 L 9.6875 0 L 9.6875 -5.90625 C 9.6875 -6.8125 9.429688 -7.515625 8.921875 -8.015625 C 8.410156 -8.523438 7.703125 -8.78125 6.796875 -8.78125 C 5.796875 -8.769531 4.992188 -8.460938 4.390625 -7.859375 C 3.796875 -7.265625 3.453125 -6.476562 3.359375 -5.5 L 3.359375 0 L 1.84375 0 L 1.84375 -10.234375 L 3.359375 -10.234375 L 3.359375 -7.984375 C 4.054688 -9.492188 5.378906 -10.265625 7.328125 -10.296875 Z M 7.328125 -10.296875 "/></g></g></g><g fill="#ffffff" fill-opacity="1"><g transform="translate(372.922804, 210.271593)"><g><path d="M 10.765625 -10.234375 L 10.765625 -1.0625 C 10.765625 0.425781 10.289062 1.609375 9.34375 2.484375 C 8.40625 3.367188 7.160156 3.8125 5.609375 3.8125 C 4.097656 3.789062 2.703125 3.296875 1.421875 2.328125 L 2.109375 1.171875 C 3.140625 2.023438 4.285156 2.457031 5.546875 2.46875 C 6.660156 2.46875 7.554688 2.148438 8.234375 1.515625 C 8.910156 0.878906 9.25 0.03125 9.25 -1.03125 L 9.25 -2.578125 C 8.5 -1.160156 7.242188 -0.453125 5.484375 -0.453125 C 4.109375 -0.453125 2.984375 -0.910156 2.109375 -1.828125 C 1.242188 -2.742188 0.8125 -3.9375 0.8125 -5.40625 C 0.8125 -6.820312 1.238281 -7.988281 2.09375 -8.90625 C 2.945312 -9.820312 4.0625 -10.285156 5.4375 -10.296875 C 7.195312 -10.296875 8.46875 -9.582031 9.25 -8.15625 L 9.25 -10.234375 Z M 3.234375 -2.75 C 3.890625 -2.070312 4.726562 -1.734375 5.75 -1.734375 C 6.769531 -1.734375 7.609375 -2.070312 8.265625 -2.75 C 8.921875 -3.425781 9.25 -4.289062 9.25 -5.34375 C 9.25 -6.40625 8.921875 -7.273438 8.265625 -7.953125 C 7.609375 -8.628906 6.769531 -8.96875 5.75 -8.96875 C 4.726562 -8.96875 3.890625 -8.628906 3.234375 -7.953125 C 2.578125 -7.273438 2.242188 -6.40625 2.234375 -5.34375 C 2.242188 -4.289062 2.578125 -3.425781 3.234375 -2.75 Z M 3.234375 -2.75 "/></g></g></g><g clip-path="url(#e4242ef02b)"><g clip-path="url(#7194f509c3)"><g clip-path="url(#abe9c7a6de)"><path fill="#23b5b5" d="M 265.472656 225.757812 L 265.476562 225.757812 L 269.441406 126.691406 L 269.421875 126.675781 C 269.519531 124.769531 268.652344 122.867188 266.9375 121.753906 C 265.402344 120.753906 263.558594 120.632812 261.964844 121.238281 L 261.953125 121.230469 L 261.894531 121.261719 C 261.597656 121.378906 261.3125 121.527344 261.035156 121.699219 L 173.773438 166.210938 C 172.804688 166.628906 171.941406 167.324219 171.320312 168.273438 C 169.660156 170.832031 170.386719 174.253906 172.945312 175.914062 L 256.945312 230.503906 C 259.503906 232.164062 262.921875 231.4375 264.585938 228.882812 C 265.210938 227.917969 265.496094 226.828125 265.472656 225.757812 Z M 265.472656 225.757812 " fill-opacity="1" fill-rule="nonzero"/></g></g></g></svg>