<svg xmlns="http://www.w3.org/2000/svg" xmlns:xlink="http://www.w3.org/1999/xlink" width="500" zoomAndPan="magnify" viewBox="0 0 375 374.999991" height="500" preserveAspectRatio="xMidYMid meet" version="1.0"><defs><g/><clipPath id="9c996c7e21"><path d="M 57 151 L 139 151 L 139 242 L 57 242 Z M 57 151 " clip-rule="nonzero"/></clipPath><clipPath id="5acd5d8370"><path d="M 98.6875 128.105469 L 174.152344 177.144531 L 131.242188 243.175781 L 55.777344 194.136719 Z M 98.6875 128.105469 " clip-rule="nonzero"/></clipPath><clipPath id="28745a8911"><path d="M 98.6875 128.105469 L 174.152344 177.144531 L 131.242188 243.175781 L 55.777344 194.136719 Z M 98.6875 128.105469 " clip-rule="nonzero"/></clipPath></defs><rect x="-37.5" width="450" fill="#ffffff" y="-37.499999" height="449.999989" fill-opacity="1"/><rect x="-37.5" width="450" fill="#000000" y="-37.499999" height="449.999989" fill-opacity="1"/><g fill="#ffffff" fill-opacity="1"><g transform="translate(150.687681, 201.157223)"><g><path d="M 17.609375 -29.21875 L 17.609375 -9.015625 C 17.609375 -6.085938 16.800781 -3.816406 15.1875 -2.203125 C 13.570312 -0.597656 11.347656 0.203125 8.515625 0.203125 C 5.066406 0.203125 2.203125 -1.195312 -0.078125 -4 L 2.25 -7.765625 C 4.226562 -5.617188 6.300781 -4.546875 8.46875 -4.546875 C 9.800781 -4.546875 10.828125 -4.941406 11.546875 -5.734375 C 12.273438 -6.523438 12.640625 -7.675781 12.640625 -9.1875 L 12.640625 -24.796875 L 2.546875 -24.796875 L 2.546875 -29.21875 Z M 17.609375 -29.21875 "/></g></g></g><g fill="#ffffff" fill-opacity="1"><g transform="translate(171.511211, 201.157223)"><g><path d="M 8.765625 -4.46875 L 21.40625 -4.46875 L 21.40625 0 L 3.84375 0 L 3.84375 -29.21875 L 8.765625 -29.21875 Z M 8.765625 -4.46875 "/></g></g></g><g fill="#ffffff" fill-opacity="1"><g transform="translate(193.795306, 201.157223)"><g><path d="M 22.703125 -6.59375 L 7.96875 -6.59375 L 5.171875 0 L 0.046875 0 L 12.9375 -29.21875 L 17.984375 -29.21875 L 30.765625 0 L 25.5 0 Z M 20.828125 -10.96875 L 15.3125 -23.953125 L 9.8125 -10.96875 Z M 20.828125 -10.96875 "/></g></g></g><g fill="#ffffff" fill-opacity="1"><g transform="translate(224.592431, 201.157223)"><g><path d="M 12.8125 -11.0625 L 2.546875 -11.0625 L 2.546875 -14.359375 L 12.8125 -14.359375 Z M 12.8125 -11.0625 "/></g></g></g><g fill="#ffffff" fill-opacity="1"><g transform="translate(239.949268, 201.157223)"><g><path d="M 23.328125 0 L 13.734375 -12.890625 L 8.765625 -7.421875 L 8.765625 0 L 3.84375 0 L 3.84375 -29.21875 L 8.765625 -29.21875 L 8.765625 -14.109375 L 22.703125 -29.21875 L 28.5 -29.21875 L 17.1875 -16.734375 L 29.25 0 Z M 23.328125 0 "/></g></g></g><g fill="#ffffff" fill-opacity="1"><g transform="translate(269.911786, 201.157223)"><g><path d="M 15.8125 -9.71875 L 15.8125 0 L 10.9375 0 L 10.9375 -9.5625 L 0.046875 -29.21875 L 5.015625 -29.21875 L 13.359375 -14.984375 L 21.53125 -29.21875 L 26.546875 -29.21875 Z M 15.8125 -9.71875 "/></g></g></g><g fill="#ffffff" fill-opacity="1"><g transform="translate(296.494132, 201.157223)"><g><path d="M 16.78125 -29.34375 C 18.832031 -29.34375 20.835938 -28.941406 22.796875 -28.140625 C 24.765625 -27.347656 26.457031 -26.242188 27.875 -24.828125 L 25 -21.25 C 23.9375 -22.382812 22.679688 -23.285156 21.234375 -23.953125 C 19.796875 -24.617188 18.335938 -24.953125 16.859375 -24.953125 C 13.941406 -24.953125 11.472656 -23.957031 9.453125 -21.96875 C 7.429688 -19.976562 6.421875 -17.550781 6.421875 -14.6875 C 6.421875 -11.789062 7.429688 -9.347656 9.453125 -7.359375 C 11.472656 -5.367188 13.941406 -4.375 16.859375 -4.375 C 19.890625 -4.375 22.601562 -5.53125 25 -7.84375 L 27.921875 -4.59375 C 26.421875 -3.113281 24.664062 -1.941406 22.65625 -1.078125 C 20.65625 -0.222656 18.640625 0.203125 16.609375 0.203125 C 12.328125 0.203125 8.722656 -1.21875 5.796875 -4.0625 C 2.878906 -6.914062 1.421875 -10.445312 1.421875 -14.65625 C 1.421875 -18.800781 2.898438 -22.285156 5.859375 -25.109375 C 8.828125 -27.929688 12.46875 -29.34375 16.78125 -29.34375 Z M 16.78125 -29.34375 "/></g></g></g><g fill="#ffffff" fill-opacity="1"><g transform="translate(150.687681, 224.154331)"><g><path d="M 4.765625 -8.328125 C 6.097656 -8.335938 7.164062 -7.929688 7.96875 -7.109375 L 7.296875 -6.234375 C 6.617188 -6.878906 5.789062 -7.203125 4.8125 -7.203125 C 3.957031 -7.203125 3.253906 -6.914062 2.703125 -6.34375 C 2.148438 -5.78125 1.875 -5.046875 1.875 -4.140625 C 1.875 -3.234375 2.148438 -2.492188 2.703125 -1.921875 C 3.253906 -1.359375 3.957031 -1.078125 4.8125 -1.078125 C 5.925781 -1.078125 6.785156 -1.429688 7.390625 -2.140625 L 8.09375 -1.390625 C 7.3125 -0.429688 6.203125 0.046875 4.765625 0.046875 C 3.566406 0.046875 2.582031 -0.335938 1.8125 -1.109375 C 1.039062 -1.890625 0.65625 -2.898438 0.65625 -4.140625 C 0.65625 -5.367188 1.039062 -6.375 1.8125 -7.15625 C 2.59375 -7.9375 3.578125 -8.328125 4.765625 -8.328125 Z M 4.765625 -8.328125 "/></g></g></g><g fill="#ffffff" fill-opacity="1"><g transform="translate(159.523389, 224.154331)"><g><path d="M 1.84375 -7.15625 C 2.632812 -7.9375 3.640625 -8.328125 4.859375 -8.328125 C 6.085938 -8.328125 7.097656 -7.9375 7.890625 -7.15625 C 8.679688 -6.382812 9.078125 -5.382812 9.078125 -4.15625 C 9.078125 -2.914062 8.679688 -1.90625 7.890625 -1.125 C 7.097656 -0.34375 6.085938 0.046875 4.859375 0.046875 C 3.640625 0.046875 2.632812 -0.34375 1.84375 -1.125 C 1.050781 -1.90625 0.65625 -2.914062 0.65625 -4.15625 C 0.65625 -5.382812 1.050781 -6.382812 1.84375 -7.15625 Z M 7 -6.359375 C 6.445312 -6.929688 5.734375 -7.21875 4.859375 -7.21875 C 3.992188 -7.21875 3.28125 -6.929688 2.71875 -6.359375 C 2.164062 -5.785156 1.890625 -5.046875 1.890625 -4.140625 C 1.890625 -3.222656 2.164062 -2.476562 2.71875 -1.90625 C 3.28125 -1.34375 3.992188 -1.0625 4.859375 -1.0625 C 5.734375 -1.0625 6.445312 -1.34375 7 -1.90625 C 7.5625 -2.476562 7.84375 -3.222656 7.84375 -4.140625 C 7.84375 -5.046875 7.5625 -5.785156 7 -6.359375 Z M 7 -6.359375 "/></g></g></g><g fill="#ffffff" fill-opacity="1"><g transform="translate(169.256852, 224.154331)"><g><path d="M 5.9375 -8.34375 C 6.925781 -8.34375 7.695312 -8.054688 8.25 -7.484375 C 8.8125 -6.910156 9.09375 -6.125 9.09375 -5.125 L 9.09375 0 L 7.859375 0 L 7.859375 -4.78125 C 7.859375 -5.519531 7.648438 -6.09375 7.234375 -6.5 C 6.816406 -6.914062 6.242188 -7.125 5.515625 -7.125 C 4.703125 -7.113281 4.050781 -6.863281 3.5625 -6.375 C 3.070312 -5.894531 2.789062 -5.253906 2.71875 -4.453125 L 2.71875 0 L 1.5 0 L 1.5 -8.296875 L 2.71875 -8.296875 L 2.71875 -6.46875 C 3.289062 -7.695312 4.363281 -8.320312 5.9375 -8.34375 Z M 5.9375 -8.34375 "/></g></g></g><g fill="#ffffff" fill-opacity="1"><g transform="translate(179.588806, 224.154331)"><g><path d="M 3.703125 -8.34375 C 4.734375 -8.34375 5.613281 -8.09375 6.34375 -7.59375 L 5.875 -6.609375 C 5.15625 -7.066406 4.40625 -7.296875 3.625 -7.296875 C 3.125 -7.296875 2.722656 -7.203125 2.421875 -7.015625 C 2.128906 -6.828125 1.984375 -6.550781 1.984375 -6.1875 C 1.984375 -5.851562 2.140625 -5.582031 2.453125 -5.375 C 2.773438 -5.175781 3.160156 -5.007812 3.609375 -4.875 C 4.066406 -4.75 4.519531 -4.601562 4.96875 -4.4375 C 5.425781 -4.28125 5.8125 -4.023438 6.125 -3.671875 C 6.445312 -3.316406 6.609375 -2.863281 6.609375 -2.3125 C 6.609375 -1.539062 6.316406 -0.953125 5.734375 -0.546875 C 5.148438 -0.148438 4.429688 0.046875 3.578125 0.046875 C 2.265625 0.046875 1.203125 -0.34375 0.390625 -1.125 L 0.859375 -2.046875 C 1.210938 -1.722656 1.632812 -1.46875 2.125 -1.28125 C 2.625 -1.09375 3.125 -1 3.625 -1 C 4.132812 -1 4.554688 -1.097656 4.890625 -1.296875 C 5.222656 -1.492188 5.394531 -1.785156 5.40625 -2.171875 C 5.414062 -2.535156 5.257812 -2.828125 4.9375 -3.046875 C 4.625 -3.273438 4.242188 -3.453125 3.796875 -3.578125 C 3.347656 -3.710938 2.894531 -3.851562 2.4375 -4 C 1.988281 -4.15625 1.601562 -4.40625 1.28125 -4.75 C 0.96875 -5.101562 0.8125 -5.550781 0.8125 -6.09375 C 0.8125 -6.84375 1.085938 -7.40625 1.640625 -7.78125 C 2.191406 -8.15625 2.878906 -8.34375 3.703125 -8.34375 Z M 3.703125 -8.34375 "/></g></g></g><g fill="#ffffff" fill-opacity="1"><g transform="translate(186.723521, 224.154331)"><g><path d="M 8.6875 -8.296875 L 8.6875 0 L 7.46875 0 L 7.46875 -1.875 C 6.925781 -0.613281 5.875 0.0234375 4.3125 0.046875 C 3.34375 0.046875 2.582031 -0.238281 2.03125 -0.8125 C 1.488281 -1.394531 1.21875 -2.1875 1.21875 -3.1875 L 1.21875 -8.296875 L 2.4375 -8.296875 L 2.4375 -3.515625 C 2.4375 -2.773438 2.640625 -2.203125 3.046875 -1.796875 C 3.460938 -1.390625 4.023438 -1.1875 4.734375 -1.1875 C 5.585938 -1.195312 6.253906 -1.476562 6.734375 -2.03125 C 7.222656 -2.59375 7.46875 -3.320312 7.46875 -4.21875 L 7.46875 -8.296875 Z M 8.6875 -8.296875 "/></g></g></g><g fill="#ffffff" fill-opacity="1"><g transform="translate(196.913729, 224.154331)"><g><path d="M 2.796875 0 L 1.578125 0 L 1.578125 -11.6875 L 2.796875 -11.6875 Z M 2.796875 0 "/></g></g></g><g fill="#ffffff" fill-opacity="1"><g transform="translate(201.292216, 224.154331)"><g><path d="M 5.4375 -1.5625 L 5.78125 -0.5625 C 5.175781 -0.15625 4.550781 0.0507812 3.90625 0.0625 C 3.257812 0.0625 2.742188 -0.132812 2.359375 -0.53125 C 1.984375 -0.925781 1.796875 -1.515625 1.796875 -2.296875 L 1.796875 -7.046875 L 0.59375 -7.046875 L 0.59375 -8.03125 L 1.796875 -8.03125 L 1.796875 -10.21875 L 3.015625 -10.21875 L 3.015625 -8.03125 L 5.640625 -8.046875 L 5.640625 -7.046875 L 3.015625 -7.046875 L 3.015625 -2.515625 C 3.015625 -1.597656 3.378906 -1.140625 4.109375 -1.140625 C 4.535156 -1.140625 4.976562 -1.28125 5.4375 -1.5625 Z M 5.4375 -1.5625 "/></g></g></g><g fill="#ffffff" fill-opacity="1"><g transform="translate(207.434694, 224.154331)"><g><path d="M 1.515625 -11.28125 C 1.671875 -11.445312 1.863281 -11.53125 2.09375 -11.53125 C 2.320312 -11.53125 2.507812 -11.445312 2.65625 -11.28125 C 2.8125 -11.125 2.890625 -10.921875 2.890625 -10.671875 C 2.890625 -10.429688 2.8125 -10.226562 2.65625 -10.0625 C 2.507812 -9.90625 2.320312 -9.828125 2.09375 -9.828125 C 1.863281 -9.828125 1.671875 -9.90625 1.515625 -10.0625 C 1.367188 -10.226562 1.296875 -10.429688 1.296875 -10.671875 C 1.296875 -10.921875 1.367188 -11.125 1.515625 -11.28125 Z M 2.703125 0 L 1.5 0 L 1.5 -8.296875 L 2.703125 -8.296875 Z M 2.703125 0 "/></g></g></g><g fill="#ffffff" fill-opacity="1"><g transform="translate(211.639928, 224.154331)"><g><path d="M 5.9375 -8.34375 C 6.925781 -8.34375 7.695312 -8.054688 8.25 -7.484375 C 8.8125 -6.910156 9.09375 -6.125 9.09375 -5.125 L 9.09375 0 L 7.859375 0 L 7.859375 -4.78125 C 7.859375 -5.519531 7.648438 -6.09375 7.234375 -6.5 C 6.816406 -6.914062 6.242188 -7.125 5.515625 -7.125 C 4.703125 -7.113281 4.050781 -6.863281 3.5625 -6.375 C 3.070312 -5.894531 2.789062 -5.253906 2.71875 -4.453125 L 2.71875 0 L 1.5 0 L 1.5 -8.296875 L 2.71875 -8.296875 L 2.71875 -6.46875 C 3.289062 -7.695312 4.363281 -8.320312 5.9375 -8.34375 Z M 5.9375 -8.34375 "/></g></g></g><g fill="#ffffff" fill-opacity="1"><g transform="translate(221.971883, 224.154331)"><g><path d="M 8.71875 -8.296875 L 8.71875 -0.859375 C 8.71875 0.335938 8.335938 1.296875 7.578125 2.015625 C 6.816406 2.734375 5.804688 3.09375 4.546875 3.09375 C 3.316406 3.082031 2.1875 2.679688 1.15625 1.890625 L 1.71875 0.9375 C 2.550781 1.632812 3.476562 1.988281 4.5 2 C 5.40625 2 6.128906 1.738281 6.671875 1.21875 C 7.222656 0.707031 7.5 0.0234375 7.5 -0.828125 L 7.5 -2.09375 C 6.882812 -0.9375 5.863281 -0.359375 4.4375 -0.359375 C 3.320312 -0.359375 2.410156 -0.726562 1.703125 -1.46875 C 1.003906 -2.21875 0.65625 -3.1875 0.65625 -4.375 C 0.65625 -5.53125 1 -6.476562 1.6875 -7.21875 C 2.382812 -7.957031 3.289062 -8.332031 4.40625 -8.34375 C 5.832031 -8.34375 6.863281 -7.765625 7.5 -6.609375 L 7.5 -8.296875 Z M 2.625 -2.234375 C 3.15625 -1.679688 3.832031 -1.40625 4.65625 -1.40625 C 5.488281 -1.40625 6.171875 -1.679688 6.703125 -2.234375 C 7.234375 -2.785156 7.5 -3.484375 7.5 -4.328125 C 7.5 -5.191406 7.234375 -5.898438 6.703125 -6.453125 C 6.171875 -7.003906 5.488281 -7.28125 4.65625 -7.28125 C 3.832031 -7.28125 3.15625 -7.003906 2.625 -6.453125 C 2.09375 -5.898438 1.820312 -5.191406 1.8125 -4.328125 C 1.820312 -3.484375 2.09375 -2.785156 2.625 -2.234375 Z M 2.625 -2.234375 "/></g></g></g><g clip-path="url(#9c996c7e21)"><g clip-path="url(#5acd5d8370)"><g clip-path="url(#28745a8911)"><path fill="#23b5b5" d="M 134.804688 236.714844 L 138.023438 156.351562 L 138.003906 156.339844 C 138.085938 154.792969 137.382812 153.25 135.992188 152.347656 C 134.746094 151.535156 133.25 151.4375 131.957031 151.929688 L 131.949219 151.921875 L 131.902344 151.945312 C 131.660156 152.042969 131.425781 152.164062 131.203125 152.300781 L 60.417969 188.410156 C 59.632812 188.746094 58.929688 189.3125 58.429688 190.085938 C 57.082031 192.160156 57.671875 194.933594 59.746094 196.28125 L 127.886719 240.5625 C 129.960938 241.910156 132.734375 241.320312 134.082031 239.246094 C 134.589844 238.464844 134.824219 237.582031 134.804688 236.714844 Z M 134.804688 236.714844 " fill-opacity="1" fill-rule="nonzero"/></g></g></g></svg>